<svg width="48" height="48" viewBox="0 0 48 48" fill="none" xmlns="http://www.w3.org/2000/svg">
<g clip-path="url(#clip0_13_60)">
<path d="M47.4501 22.6728L47.4484 22.671L37.6511 12.921C36.9172 12.1906 35.73 12.1933 34.9994 12.9274C34.2689 13.6613 34.2717 14.8485 35.0057 15.579L41.5836 22.125H1.875C0.839438 22.125 0 22.9644 0 24C0 25.0356 0.839438 25.875 1.875 25.875H41.5835L35.0058 32.421C34.2718 33.1515 34.269 34.3386 34.9995 35.0726C35.7301 35.8068 36.9173 35.8093 37.6512 35.079L47.4485 25.329L47.4502 25.3272C48.1845 24.5943 48.1822 23.4033 47.4501 22.6728Z" fill="#8696A9"/>
</g>
<defs>
<clipPath id="clip0_13_60">
<rect width="48" height="48" fill="white"/>
</clipPath>
</defs>
</svg>
