<svg width="40" height="40" viewBox="0 0 40 40" fill="none" xmlns="http://www.w3.org/2000/svg">
<path d="M31.84 9.92483C32.0106 9.75075 32.2142 9.61245 32.4389 9.51804C32.6636 9.42363 32.9049 9.375 33.1487 9.375C33.3925 9.375 33.6338 9.42363 33.8585 9.51804C34.0832 9.61245 34.2868 9.75075 34.4575 9.92483C35.1725 10.6473 35.1825 11.8148 34.4825 12.5498L19.7 30.0248C19.5321 30.2091 19.3284 30.3573 19.1014 30.4601C18.8743 30.563 18.6287 30.6185 18.3795 30.6232C18.1302 30.6279 17.8827 30.5816 17.6519 30.4874C17.4212 30.3931 17.2121 30.2527 17.0375 30.0748L8.04245 20.9598C7.69554 20.606 7.50122 20.1303 7.50122 19.6348C7.50122 19.1393 7.69554 18.6636 8.04245 18.3098C8.21307 18.1357 8.4167 17.9975 8.64142 17.903C8.86615 17.8086 9.10745 17.76 9.3512 17.76C9.59495 17.76 9.83626 17.8086 10.061 17.903C10.2857 17.9975 10.4893 18.1357 10.66 18.3098L18.29 26.0423L31.79 9.97984C31.8055 9.96051 31.8222 9.94215 31.84 9.92483Z" fill="#26AFF0"/>
</svg>
