<svg width="129" height="128" viewBox="0 0 129 128" fill="none" xmlns="http://www.w3.org/2000/svg">
<g clip-path="url(#clip0_136_64)">
<path d="M64.5 128C99.8462 128 128.5 99.3462 128.5 64C128.5 28.6538 99.8462 0 64.5 0C29.1538 0 0.5 28.6538 0.5 64C0.5 99.3462 29.1538 128 64.5 128Z" fill="#FF2147"/>
<path d="M64.5001 76.8C62.1824 76.7999 59.9547 75.903 58.2835 74.297C56.6124 72.6911 55.6275 70.5009 55.5351 68.185L54.3526 38.325C54.3052 37.118 54.5019 35.9139 54.9311 34.7848C55.3602 33.6557 56.0129 32.6248 56.8501 31.7541C57.6872 30.8833 58.6916 30.1905 59.8029 29.7173C60.9143 29.244 62.1097 29.0001 63.3176 29H65.6826C66.8905 29.0001 68.086 29.244 69.1973 29.7173C70.3087 30.1905 71.3131 30.8833 72.1502 31.7541C72.9873 32.6248 73.6401 33.6557 74.0692 34.7848C74.4983 35.9139 74.6951 37.118 74.6476 38.325L73.4651 68.185C73.3728 70.5009 72.3879 72.6911 70.7167 74.297C69.0456 75.903 66.8178 76.7999 64.5001 76.8Z" fill="white"/>
<path d="M73.458 90.0425C73.458 85.0954 69.4476 81.085 64.5005 81.085C59.5534 81.085 55.543 85.0954 55.543 90.0425C55.543 94.9896 59.5534 99 64.5005 99C69.4476 99 73.458 94.9896 73.458 90.0425Z" fill="white"/>
</g>
<defs>
<clipPath id="clip0_136_64">
<rect width="128" height="128" fill="white" transform="translate(0.5)"/>
</clipPath>
</defs>
</svg>
