<svg width="129" height="128" viewBox="0 0 129 128" fill="none" xmlns="http://www.w3.org/2000/svg">
<path d="M27.3998 65.08C31.2698 86.18 48.6598 102.08 69.5298 102.08C93.2498 102.08 111.13 81.5 112.48 56.2C113.48 37.36 103.03 18.7 79.9098 8.31997C69.761 3.80122 58.4352 2.63816 47.5798 4.99997C69.8098 -1.02003 89.1098 5.01997 102.18 15.66C110.38 22.12 118.3 30.99 121.5 40.06C123.751 46.4485 125.022 53.141 125.27 59.91C125.27 94.31 98.3998 122.21 64.0098 122.21C49.2519 122.216 34.9716 116.98 23.7151 107.436C12.4586 97.8918 4.95771 84.6601 2.5498 70.1C3.1198 54.28 22.3798 51.87 27.3798 65.08H27.3998Z" fill="#26AFF0"/>
</svg>
