<svg width="72" height="72" viewBox="0 0 72 72" fill="none" xmlns="http://www.w3.org/2000/svg">
<g clip-path="url(#clip0_15_310)">
<path d="M67.5 31.5C66.3065 31.5 65.1619 31.9741 64.318 32.818C63.4741 33.6619 63 34.8065 63 36C63 50.8882 50.8882 63 36 63C21.1117 63 9 50.8882 9 36C9 21.1117 21.1117 9 36 9C42.6217 9 48.906 11.4412 53.8042 15.75H47.736C46.5425 15.75 45.3979 16.2241 44.554 17.068C43.7101 17.9119 43.236 19.0565 43.236 20.25C43.236 21.4435 43.7101 22.5881 44.554 23.432C45.3979 24.2759 46.5425 24.75 47.736 24.75H63.3893C64.5827 24.75 65.7273 24.2759 66.5712 23.432C67.4151 22.5881 67.8893 21.4435 67.8893 20.25V4.599C67.8893 3.40553 67.4151 2.26093 66.5712 1.41702C65.7273 0.573106 64.5827 0.099 63.3893 0.099C62.1958 0.099 61.0512 0.573106 60.2073 1.41702C59.3634 2.26093 58.8893 3.40553 58.8893 4.599V8.27325C52.4567 2.9325 44.3607 0.00623414 36 0C16.1505 0 0 16.1505 0 36C0 55.8495 16.1505 72 36 72C55.8495 72 72 55.8495 72 36C72 34.8065 71.5259 33.6619 70.682 32.818C69.8381 31.9741 68.6935 31.5 67.5 31.5Z" fill="#26AFF0"/>
</g>
<defs>
<clipPath id="clip0_15_310">
<rect width="72" height="72" fill="white"/>
</clipPath>
</defs>
</svg>
