<svg width="5124" height="725" viewBox="0 0 5124 725" fill="none" xmlns="http://www.w3.org/2000/svg">
<path opacity="0.2" d="M2 114.793C2 52.564 61.6343 2.11481 135.207 2.11481H242.007V609.342C242.007 671.571 182.372 722.02 108.823 722.02H2V114.793ZM4006.38 362.079C4025.42 371.011 4040.55 381.414 4051.94 393.216C4071.57 413.561 4081.38 446.972 4081.38 493.265V538.777C4080.85 582.016 4071.78 616.943 4054.17 643.694C4036.1 671.272 4008.54 691.181 3971.59 703.535C3934.58 715.843 3887.3 721.974 3829.75 721.974H3201.95V115C3201.95 52.7018 3261.65 2.1837 3335.3 2.1837H3829.75C3887.3 2.1837 3934.58 8.33772 3971.59 20.6228C4008.54 32.9768 4036.12 52.8855 4054.17 80.4637C4071.78 107.215 4080.85 142.142 4081.38 185.381V230.893C4081.38 277.163 4071.55 310.573 4051.94 330.941C4040.55 342.744 4025.42 353.123 4006.38 362.079ZM3841.37 538.617V485.435C3841.37 450.417 3807.82 422.035 3766.44 422.035H3441.38V601.994H3766.44C3807.82 601.994 3841.37 573.612 3841.37 538.594V538.617ZM3441.38 302.077H3766.44C3807.82 302.077 3841.37 261.089 3841.37 226.071V185.404C3841.37 150.385 3807.82 122.003 3766.44 122.003H3441.38V302.077ZM2908.58 2.11481H2411.76C2351.43 2.11481 2298.69 36.4212 2283.1 85.6763L2081.97 721.974H2217.61C2277.93 721.974 2330.77 687.668 2346.27 638.413L2395.73 482.013H2508.8C2582.3 482.013 2641.96 431.541 2641.96 369.358V362.079H2433.64L2491.64 178.538C2502.14 145.265 2537.8 122.118 2578.49 122.118H2801.87V609.319C2801.87 671.571 2861.53 722.043 2935.1 722.043H3041.97V114.977C3041.97 52.6558 2982.24 2.13778 2908.58 2.13778V2.11481ZM1522 2.11481H1415.17C1341.62 2.11481 1281.99 52.564 1281.99 114.793V722.02H1848.8C1922.35 722.02 1981.99 671.571 1981.99 609.342V542.038H1522V2.11481ZM402.011 182.097H642.018V722.02H748.818C822.367 722.02 882.001 671.571 882.001 609.342V182.097H988.801C1062.35 182.097 1121.99 131.648 1121.99 69.4186V2.11481H535.172C461.622 2.11481 401.988 52.564 401.988 114.793V182.097H402.011ZM5121.36 541.854V481.99C5121.36 439.28 5116.42 413.286 5106.16 388.165C5095.9 363.066 5080.6 344.489 5060.44 332.113C5040.35 319.827 5015.94 311.722 4987.17 307.91C4958.46 304.006 4920.78 302.054 4874.1 302.054H4537.65C4506.63 302.054 4481.46 280.768 4481.46 254.544V181.936C4481.46 148.824 4513.15 121.98 4552.34 121.98H4794.23C4816.26 121.98 4835.36 126.917 4851.34 136.814C4854.92 138.996 4858.16 141.614 4861.24 144.231L4862.2 145.127C4889.41 168.664 4926.64 181.913 4965.61 181.913H5121.38C5121.38 82.5533 5040.83 2 4941.47 2H4481.44L4421.34 2.06889C4321.98 2.13778 4241.43 82.6911 4241.43 182.051V254.521C4241.59 296.268 4246.66 311.4 4256.86 335.97C4267.06 361 4282.33 379.737 4302.49 392.022C4322.56 404.307 4346.99 412.413 4375.76 416.225C4404.46 420.198 4442.15 422.081 4488.83 422.081C4488.83 422.081 4690.86 422.012 4810.51 422.012C4849.71 422.012 4881.4 448.832 4881.4 481.967V541.992C4881.4 575.104 4849.71 601.948 4810.51 601.948H4568.56C4546.54 601.948 4527.43 597.011 4511.45 587.114C4507.84 585.024 4504.63 582.384 4501.55 579.697L4500.59 578.87C4473.38 555.333 4436.15 541.992 4397.19 541.992H4241.41C4241.41 641.352 4321.96 721.905 4421.32 721.905H4941.52C5040.88 721.836 5121.43 641.283 5121.43 541.831H5121.36V541.854Z" stroke="white" stroke-width="4" stroke-miterlimit="10"/>
</svg>
