<svg width="1200" height="264" viewBox="0 0 1200 264" fill="none" xmlns="http://www.w3.org/2000/svg">
<path d="M1147.26 0H52.7405C23.6127 0 0 23.6127 0 52.7405V210.986C0 240.113 23.6127 263.726 52.7405 263.726H1147.26C1176.39 263.726 1200 240.113 1200 210.986V52.7405C1200 23.6127 1176.39 0 1147.26 0Z" fill="white"/>
<path d="M52.7405 77.5233C52.7405 63.8288 65.8664 52.7405 82.0487 52.7405H105.505V186.321C105.505 200.016 92.3788 211.104 76.1965 211.104H52.7405V77.5233ZM906.516 131.899C910.709 133.865 914.026 136.163 916.538 138.746C920.85 143.224 923.006 150.569 923.006 160.757V170.779C922.887 180.28 920.897 187.98 917.012 193.856C913.031 199.921 906.966 204.304 898.839 207.029C890.689 209.73 880.287 211.08 867.635 211.08H725.193L725.265 77.5707C725.265 63.8762 738.343 52.7642 754.525 52.7642H867.635C880.287 52.7642 890.689 54.1147 898.839 56.8157C906.966 59.5404 913.031 63.9236 917.012 69.9889C920.873 75.8648 922.887 83.565 923.006 93.0659V103.088C923.006 113.276 920.85 120.621 916.538 125.099C914.026 127.681 910.709 129.979 906.516 131.946V131.899ZM870.218 170.731V159.027C870.218 151.327 862.849 145.072 853.728 145.072H777.958V184.663H853.728C862.826 184.663 870.218 178.408 870.218 170.708V170.731ZM777.958 118.702H853.728C862.826 118.702 870.218 109.675 870.218 101.974V93.0185C870.218 85.3183 862.849 79.0633 853.728 79.0633H777.958V118.702ZM669.562 52.7405H573.653C560.385 52.7405 548.776 60.2748 545.34 71.1262L501.106 211.104H530.935C544.203 211.104 555.836 203.57 559.248 192.718L570.123 158.316H590.57C606.729 158.316 619.855 147.204 619.855 133.533V131.922H578.463L591.21 91.5495C593.508 84.2284 601.374 79.1344 610.306 79.1344H646.13V186.298C646.13 199.992 659.256 211.104 675.438 211.104H698.871V77.547C698.871 63.8288 685.745 52.7168 669.539 52.7168L669.562 52.7405ZM369.207 52.7405H345.751C329.569 52.7405 316.443 63.8288 316.443 77.5233V211.104H445.38C461.562 211.104 474.688 199.992 474.688 186.298V171.489H369.183V52.7168L369.207 52.7405ZM988.92 52.7405C967.075 52.7405 949.352 70.4628 949.352 92.3077V108.253C949.376 117.446 950.513 120.763 952.74 126.165C954.991 131.662 958.356 135.784 962.786 138.485C967.193 141.186 972.571 142.963 978.897 143.816C985.2 144.693 993.492 145.096 1003.78 145.096C1003.78 145.096 1052.44 144.906 1078.76 144.906C1087.39 144.906 1094.35 150.806 1094.35 158.103V171.3C1094.35 178.597 1087.39 184.497 1078.76 184.497L1021.31 184.686C1016.45 184.686 1012.26 183.597 1008.75 181.417C1007.97 180.967 1007.26 180.374 1006.57 179.782L1006.36 179.592C1000.36 174.427 992.189 171.489 983.612 171.489H949.352C949.352 193.358 967.075 210.986 988.92 210.986H1107.57C1129.44 210.986 1147.14 193.145 1147.14 171.276V158.103C1147.14 148.697 1146.05 142.987 1143.8 137.466C1141.55 131.946 1138.19 127.847 1133.75 125.146C1129.35 122.445 1123.97 120.668 1117.64 119.815C1111.34 118.962 1103.05 118.536 1092.77 118.536L1014.63 118.725C1007.8 118.725 1002.26 114.034 1002.26 108.277V92.3077C1002.26 85.0103 1009.22 79.1107 1017.85 79.1107L1075.19 78.9212C1080.04 78.9212 1084.24 80.0111 1087.74 82.1908C1088.52 82.6647 1089.24 83.257 1089.92 83.8256L1090.14 84.0152C1096.13 89.1802 1104.3 92.1181 1112.88 92.1181H1147.14C1147.14 70.2496 1129.42 52.7642 1107.57 52.7642H988.92V52.7405ZM131.875 92.3314H184.615V211.104H208.071C224.254 211.104 237.38 200.016 237.38 186.321V92.3314H260.859C277.042 92.3314 290.167 81.2431 290.167 67.5486V52.7405H161.183C145.001 52.7405 131.875 63.8288 131.875 77.5233V92.3314Z" fill="#26AFF0"/>
</svg>
